<?xml version="1.0" encoding="UTF-8"?>
<!DOCTYPE svg PUBLIC "-//W3C//DTD SVG 1.1//EN" "http://www.w3.org/Graphics/SVG/1.1/DTD/svg11.dtd">
<svg xmlns="http://www.w3.org/2000/svg" version="1.1" width="168.8px" height="48.8px" style="shape-rendering:geometricPrecision; text-rendering:geometricPrecision; image-rendering:optimizeQuality; fill-rule:evenodd; clip-rule:evenodd" xmlns:xlink="http://www.w3.org/1999/xlink">
<g><path style="opacity:0.914" fill="#cf7f7f" d="M 52.5,11.5 C 74.8333,11.5 97.1667,11.5 119.5,11.5C 119.5,15.1667 119.5,18.8333 119.5,22.5C 97.1667,22.5 74.8333,22.5 52.5,22.5C 52.5,18.8333 52.5,15.1667 52.5,11.5 Z"/></g>
<g><path style="opacity:0.924" fill="#cf7f7f" d="M 135.5,11.5 C 143.167,11.5 150.833,11.5 158.5,11.5C 158.334,17.1764 158.501,22.8431 159,28.5C 169.742,24.0827 176.242,27.5827 178.5,39C 176.239,50.5456 169.739,54.0456 159,49.5C 156.544,51.3213 153.711,51.988 150.5,51.5C 150.5,41.8333 150.5,32.1667 150.5,22.5C 145.5,22.5 140.5,22.5 135.5,22.5C 135.5,18.8333 135.5,15.1667 135.5,11.5 Z M 161.5,34.5 C 167,33.8314 169.167,36.1647 168,41.5C 163.674,45.6017 160.508,44.7684 158.5,39C 158.957,37.0598 159.957,35.5598 161.5,34.5 Z"/></g>
<g><path style="opacity:0.814" fill="#cf807f" d="M 41.5,12.5 C 47.4557,13.0866 49.2891,16.0866 47,21.5C 42.5739,24.1338 39.4073,22.9671 37.5,18C 38.0074,15.4547 39.3407,13.6214 41.5,12.5 Z"/></g>
<g><path style="opacity:0.895" fill="#cf8080" d="M 4.5,13.5 C 14.8548,13.1681 25.1881,13.5014 35.5,14.5C 29.5833,23.3314 23.9166,32.3314 18.5,41.5C 23.7921,42.4948 29.1254,42.8282 34.5,42.5C 34.5,45.5 34.5,48.5 34.5,51.5C 23.4798,51.8321 12.4798,51.4988 1.5,50.5C 7.30239,40.8666 13.3024,31.3666 19.5,22C 14.5111,21.5007 9.51108,21.3341 4.5,21.5C 4.5,18.8333 4.5,16.1667 4.5,13.5 Z"/></g>
<g><path style="opacity:0.911" fill="#cf807f" d="M 64.5,26.5 C 74.1196,25.4251 75.7862,28.4251 69.5,35.5C 66.9665,34.2117 64.4665,34.2117 62,35.5C 60.661,40.7364 60.161,46.0698 60.5,51.5C 57.8333,51.5 55.1667,51.5 52.5,51.5C 52.5,43.5 52.5,35.5 52.5,27.5C 55.7107,27.012 58.544,27.6787 61,29.5C 62.1451,28.3636 63.3117,27.3636 64.5,26.5 Z"/></g>
<g><path style="opacity:0.918" fill="#cf8080" d="M 81.5,26.5 C 85.2154,26.1961 88.7154,26.8627 92,28.5C 94.7191,27.5562 97.5525,27.2229 100.5,27.5C 100.5,35.5 100.5,43.5 100.5,51.5C 97.2893,51.988 94.456,51.3213 92,49.5C 85.5402,52.8575 79.8736,51.8575 75,46.5C 71.2913,37.6351 73.458,30.9684 81.5,26.5 Z M 84.5,34.5 C 91.2266,33.648 93.3932,36.3147 91,42.5C 88.0854,45.07 85.4187,44.7366 83,41.5C 82.1668,38.829 82.6668,36.4957 84.5,34.5 Z"/></g>
<g><path style="opacity:0.888" fill="#cf8080" d="M 117.5,26.5 C 122.126,25.7004 125.96,27.0337 129,30.5C 134.333,25.1667 139.667,25.1667 145,30.5C 145.5,37.4921 145.666,44.4921 145.5,51.5C 142.833,51.5 140.167,51.5 137.5,51.5C 137.666,46.4889 137.499,41.4889 137,36.5C 135.742,33.9447 133.909,33.2781 131.5,34.5C 130.505,40.1278 130.171,45.7945 130.5,51.5C 127.5,51.5 124.5,51.5 121.5,51.5C 121.666,46.4889 121.499,41.4889 121,36.5C 119.522,33.0069 117.522,32.6736 115,35.5C 114.501,40.8229 114.334,46.1563 114.5,51.5C 111.5,51.5 108.5,51.5 105.5,51.5C 105.5,43.5 105.5,35.5 105.5,27.5C 108.777,27.2161 111.943,27.5495 115,28.5C 115.995,27.9341 116.828,27.2674 117.5,26.5 Z"/></g>
<g><path style="opacity:0.886" fill="#cf8080" d="M 187.5,26.5 C 191.257,26.0708 194.757,26.7375 198,28.5C 201.057,27.5495 204.223,27.2161 207.5,27.5C 207.5,35.5 207.5,43.5 207.5,51.5C 203.97,52.0111 200.804,51.3444 198,49.5C 184.583,53.7645 178.583,48.7645 180,34.5C 181.353,30.6499 183.853,27.9832 187.5,26.5 Z M 190.5,34.5 C 196.496,33.3327 198.996,35.6661 198,41.5C 193.674,45.6017 190.508,44.7684 188.5,39C 189.044,37.415 189.711,35.915 190.5,34.5 Z"/></g>
<g><path style="opacity:0.862" fill="#cf8080" d="M 38.5,27.5 C 41.5,27.5 44.5,27.5 47.5,27.5C 47.5,35.5 47.5,43.5 47.5,51.5C 44.5,51.5 41.5,51.5 38.5,51.5C 38.5,43.5 38.5,35.5 38.5,27.5 Z"/></g>
</svg>
